<?xml version="1.0" encoding="UTF-8"?>
<svg xmlns="http://www.w3.org/2000/svg" viewBox="0 0 1024 1024" width="22" height="22">
  <g transform="translate(-344.91, 29.70) scale(0.8372)">
    <path fill="rgb(0,0,0)" d="M 707.699 368.499 L 1256.08 368.5 L 1420 368.523 C 1437.17 368.536 1484.86 367.507 1499.57 369.405 C 1518.04 371.757 1535.18 380.234 1548.26 393.479 C 1569.71 414.888 1575.29 436.176 1575.39 465.777 L 1574.09 743.554 L 1573.89 825.657 C 1573.8 858.641 1576.97 890.924 1551.1 916.355 C 1527.56 939.49 1502.33 938.646 1471.75 938.534 L 1427.63 938.36 L 1428.21 798.159 C 1428.02 739.922 1386.15 744.255 1343.5 744.646 L 870.387 744.612 L 726.774 744.64 C 704.523 744.639 678.627 743.464 657.576 745.039 C 625.88 747.41 613.053 780.435 616.098 807.977 C 616.983 815.985 616.124 830.193 616.153 838.361 L 616.258 938.366 L 573.164 938.493 C 543.034 938.541 516.605 939.218 493.37 915.889 C 472.256 894.69 471.802 874.158 471.701 846.893 L 472.355 577.825 L 472.304 499.139 C 472.293 479.988 471.309 459.062 474.624 440.238 C 480.342 407.772 508.375 377.831 540.823 371.028 C 560.632 366.876 588.152 368.534 608.738 368.557 L 707.699 368.499 z M 1103.27 683.374 C 1121.47 663.804 1134.88 644.704 1143.07 618.893 C 1095.93 591.037 1090.64 538.951 1137.37 508.36 C 1120.31 489.665 1110.57 481.95 1084.31 478.749 C 1062.98 476.149 1039.15 492.88 1028.01 492.865 C 1010.86 492.842 999.556 475.795 971.797 479.369 C 952.109 483.172 934.826 493.647 923.258 511.064 C 887.75 564.524 920.614 651.451 966.405 688.459 C 986.858 704.989 1010.78 682.164 1031.82 682.308 C 1060.02 682.659 1076.05 708.552 1103.27 683.374 z M 598.13 559.936 C 611.64 558.815 623.501 550.513 629.18 538.204 C 634.86 525.895 633.478 511.482 625.564 500.477 C 617.649 489.471 604.426 483.574 590.95 485.039 C 570.479 487.266 555.601 505.535 557.566 526.032 C 559.531 546.53 577.609 561.64 598.13 559.936 z M 1030.28 477.434 C 1063.01 473.403 1085.51 447.983 1085.61 414.94 C 1085.61 413.742 1084.81 411.855 1084.23 410.78 C 1082.36 410.071 1082.96 410.039 1081.11 410.11 C 1052.22 416.78 1031.62 434.799 1024.97 464.81 C 1024.21 468.257 1024.25 473.667 1026.77 476.374 L 1030.28 477.434 z"/>
    <path fill="rgb(0,0,0)" d="M 702.781 65.4232 L 1314.1 65.4474 C 1335.46 65.3094 1355.81 62.4877 1372.31 79.2865 C 1385.53 92.7476 1383.3 111.112 1383.43 128.446 C 1383.55 145.139 1383.33 161.81 1383.3 178.477 L 1383.37 337.914 L 1347.76 337.89 L 663.454 338.227 L 663.55 178.958 C 663.543 153.467 662.814 126.98 664.52 101.573 C 665.833 82.0226 684.452 68.521 702.781 65.4232 z"/>
    <path fill="rgb(0,0,0)" fill-rule="evenodd" d="M 707 815 L 1371 815 Q 1395 815 1395 839 L 1395 1062 Q 1395 1086 1371 1086 L 707 1086 Q 683 1086 683 1062 L 683 839 Q 683 815 707 815 Z M 720 845 L 1358 845 Q 1370 845 1370 857 L 1370 1042 Q 1370 1054 1358 1054 L 720 1054 Q 708 1054 708 1042 L 708 857 Q 708 845 720 845 Z"/>
  </g>
</svg>